<mxfile host="app.diagrams.net" modified="2022-03-17T00:53:06.541Z" agent="5.0 (Windows NT 10.0; Win64; x64) AppleWebKit/537.36 (KHTML, like Gecko) Chrome/99.0.4844.51 Safari/537.36" etag="uzdP9Wtf6IL7UbETBCGB" version="17.1.3" type="github">
  <diagram id="592Vn_CAJtsSqCOCT9jT" name="Page-1">
    <mxGraphModel dx="868" dy="482" grid="1" gridSize="10" guides="1" tooltips="1" connect="1" arrows="1" fold="1" page="1" pageScale="1" pageWidth="827" pageHeight="1169" math="0" shadow="0">
      <root>
        <mxCell id="0" />
        <mxCell id="1" parent="0" />
        <mxCell id="uil244L_Ds205WHZ7Cud-19" style="edgeStyle=orthogonalEdgeStyle;rounded=0;orthogonalLoop=1;jettySize=auto;html=1;exitX=0.5;exitY=1;exitDx=0;exitDy=0;entryX=0;entryY=0.5;entryDx=0;entryDy=0;" edge="1" parent="1" source="uil244L_Ds205WHZ7Cud-1" target="uil244L_Ds205WHZ7Cud-3">
          <mxGeometry relative="1" as="geometry" />
        </mxCell>
        <mxCell id="uil244L_Ds205WHZ7Cud-1" value="INICIO" style="rounded=1;whiteSpace=wrap;html=1;" vertex="1" parent="1">
          <mxGeometry x="20" y="10" width="120" height="60" as="geometry" />
        </mxCell>
        <mxCell id="uil244L_Ds205WHZ7Cud-2" value="FIM" style="rounded=1;whiteSpace=wrap;html=1;" vertex="1" parent="1">
          <mxGeometry x="700" y="370" width="120" height="60" as="geometry" />
        </mxCell>
        <mxCell id="uil244L_Ds205WHZ7Cud-20" style="edgeStyle=orthogonalEdgeStyle;rounded=0;orthogonalLoop=1;jettySize=auto;html=1;exitX=1;exitY=0.5;exitDx=0;exitDy=0;entryX=0;entryY=0.5;entryDx=0;entryDy=0;" edge="1" parent="1" source="uil244L_Ds205WHZ7Cud-3" target="uil244L_Ds205WHZ7Cud-14">
          <mxGeometry relative="1" as="geometry" />
        </mxCell>
        <mxCell id="uil244L_Ds205WHZ7Cud-3" value="ENTRADA X" style="shape=parallelogram;perimeter=parallelogramPerimeter;whiteSpace=wrap;html=1;fixedSize=1;" vertex="1" parent="1">
          <mxGeometry x="180" y="40" width="120" height="60" as="geometry" />
        </mxCell>
        <mxCell id="uil244L_Ds205WHZ7Cud-42" style="edgeStyle=orthogonalEdgeStyle;rounded=0;orthogonalLoop=1;jettySize=auto;html=1;exitX=1;exitY=0.5;exitDx=0;exitDy=0;entryX=0.5;entryY=0;entryDx=0;entryDy=0;" edge="1" parent="1" source="uil244L_Ds205WHZ7Cud-14" target="uil244L_Ds205WHZ7Cud-38">
          <mxGeometry relative="1" as="geometry" />
        </mxCell>
        <mxCell id="uil244L_Ds205WHZ7Cud-14" value="ENTRADA Y" style="shape=parallelogram;perimeter=parallelogramPerimeter;whiteSpace=wrap;html=1;fixedSize=1;" vertex="1" parent="1">
          <mxGeometry x="340" y="40" width="120" height="60" as="geometry" />
        </mxCell>
        <mxCell id="uil244L_Ds205WHZ7Cud-32" value="VERDADEIRO" style="edgeStyle=orthogonalEdgeStyle;rounded=0;orthogonalLoop=1;jettySize=auto;html=1;" edge="1" parent="1" source="uil244L_Ds205WHZ7Cud-29" target="uil244L_Ds205WHZ7Cud-31">
          <mxGeometry relative="1" as="geometry" />
        </mxCell>
        <mxCell id="uil244L_Ds205WHZ7Cud-34" value="FALSO" style="edgeStyle=orthogonalEdgeStyle;rounded=0;orthogonalLoop=1;jettySize=auto;html=1;" edge="1" parent="1" source="uil244L_Ds205WHZ7Cud-29" target="uil244L_Ds205WHZ7Cud-33">
          <mxGeometry relative="1" as="geometry" />
        </mxCell>
        <mxCell id="uil244L_Ds205WHZ7Cud-29" value="X&amp;lt;Y" style="rhombus;whiteSpace=wrap;html=1;" vertex="1" parent="1">
          <mxGeometry x="340" y="250" width="80" height="80" as="geometry" />
        </mxCell>
        <mxCell id="uil244L_Ds205WHZ7Cud-36" style="edgeStyle=orthogonalEdgeStyle;rounded=0;orthogonalLoop=1;jettySize=auto;html=1;exitX=1;exitY=0.5;exitDx=0;exitDy=0;entryX=0;entryY=0.5;entryDx=0;entryDy=0;" edge="1" parent="1" source="uil244L_Ds205WHZ7Cud-31" target="uil244L_Ds205WHZ7Cud-2">
          <mxGeometry relative="1" as="geometry" />
        </mxCell>
        <mxCell id="uil244L_Ds205WHZ7Cud-31" value="&amp;nbsp;&lt;br&gt;Y" style="shape=document;whiteSpace=wrap;html=1;boundedLbl=1;" vertex="1" parent="1">
          <mxGeometry x="590" y="220" width="120" height="80" as="geometry" />
        </mxCell>
        <mxCell id="uil244L_Ds205WHZ7Cud-35" style="edgeStyle=orthogonalEdgeStyle;rounded=0;orthogonalLoop=1;jettySize=auto;html=1;entryX=0;entryY=0.5;entryDx=0;entryDy=0;" edge="1" parent="1" source="uil244L_Ds205WHZ7Cud-33" target="uil244L_Ds205WHZ7Cud-2">
          <mxGeometry relative="1" as="geometry">
            <mxPoint x="230" y="504.7058823529412" as="targetPoint" />
            <Array as="points">
              <mxPoint x="220" y="400" />
              <mxPoint x="630" y="400" />
            </Array>
          </mxGeometry>
        </mxCell>
        <mxCell id="uil244L_Ds205WHZ7Cud-33" value="&lt;br&gt;X" style="shape=document;whiteSpace=wrap;html=1;boundedLbl=1;" vertex="1" parent="1">
          <mxGeometry x="100" y="210" width="120" height="70" as="geometry" />
        </mxCell>
        <mxCell id="uil244L_Ds205WHZ7Cud-40" value="VERDADEIRO&amp;nbsp;" style="edgeStyle=orthogonalEdgeStyle;rounded=0;orthogonalLoop=1;jettySize=auto;html=1;" edge="1" parent="1" source="uil244L_Ds205WHZ7Cud-38" target="uil244L_Ds205WHZ7Cud-39">
          <mxGeometry relative="1" as="geometry" />
        </mxCell>
        <mxCell id="uil244L_Ds205WHZ7Cud-43" value="FALSO&amp;nbsp;" style="edgeStyle=orthogonalEdgeStyle;rounded=0;orthogonalLoop=1;jettySize=auto;html=1;exitX=0;exitY=0.5;exitDx=0;exitDy=0;entryX=0.5;entryY=0;entryDx=0;entryDy=0;" edge="1" parent="1" source="uil244L_Ds205WHZ7Cud-38" target="uil244L_Ds205WHZ7Cud-29">
          <mxGeometry relative="1" as="geometry" />
        </mxCell>
        <mxCell id="uil244L_Ds205WHZ7Cud-38" value="X==Y" style="rhombus;whiteSpace=wrap;html=1;" vertex="1" parent="1">
          <mxGeometry x="470" y="110" width="80" height="80" as="geometry" />
        </mxCell>
        <mxCell id="uil244L_Ds205WHZ7Cud-41" style="edgeStyle=orthogonalEdgeStyle;rounded=0;orthogonalLoop=1;jettySize=auto;html=1;exitX=1;exitY=0.5;exitDx=0;exitDy=0;entryX=0.75;entryY=0;entryDx=0;entryDy=0;" edge="1" parent="1" source="uil244L_Ds205WHZ7Cud-39" target="uil244L_Ds205WHZ7Cud-2">
          <mxGeometry relative="1" as="geometry" />
        </mxCell>
        <mxCell id="uil244L_Ds205WHZ7Cud-39" value="SAO IQUAIS&amp;nbsp;" style="shape=document;whiteSpace=wrap;html=1;boundedLbl=1;" vertex="1" parent="1">
          <mxGeometry x="650" y="100" width="120" height="80" as="geometry" />
        </mxCell>
      </root>
    </mxGraphModel>
  </diagram>
</mxfile>
